<?xml version="1.0" encoding="utf-8"?>
<!-- Generator: Adobe Illustrator 25.0.0, SVG Export Plug-In . SVG Version: 6.00 Build 0)  -->
<svg version="1.1" id="Layer_1" xmlns="http://www.w3.org/2000/svg" xmlns:xlink="http://www.w3.org/1999/xlink" x="0px" y="0px"
	 viewBox="0 0 506.5 502" style="enable-background:new 0 0 506.5 502;" xml:space="preserve">
<path d="M442.8,164.1V86.3c0-17.1-13.9-31-31-31h-2.6c-17.1,0-31,13.9-31,31V93l-56.1-61.7c-37.9-41.7-99.9-41.7-137.8,0L21.2,210.7
	c-37.8,41.7-23.7,75.8,31.5,75.8h33.9v134.6c0.1,44.6,36.3,80.7,80.8,80.9H339c44.6-0.1,80.7-36.3,80.9-80.9V286.5h33.9
	c55.2,0,69.3-34.1,31.5-75.8L442.8,164.1z M332.6,383.3c-0.1,29.2-23.8,52.9-53,53h-52.9c-29.2-0.1-52.9-23.8-53-53v-42.9
	c0.1-29.2,23.8-52.9,53-53h52.9c29.2,0.1,52.9,23.8,53,53V383.3L332.6,383.3z"/>
</svg>
