<?xml version="1.0" encoding="utf-8"?>
<!-- Generator: Adobe Illustrator 25.0.0, SVG Export Plug-In . SVG Version: 6.00 Build 0)  -->
<svg version="1.1" id="Layer_1" xmlns="http://www.w3.org/2000/svg" xmlns:xlink="http://www.w3.org/1999/xlink" x="0px" y="0px"
	 viewBox="0 0 500 429.2" style="enable-background:new 0 0 500 429.2;" xml:space="preserve">
<path d="M499.6,134.8C495.9,73.3,456.2,23.5,396.2,5C350.1-9.2,302,9.2,263.7,36.9c-8.2,5.9-19.3,5.9-27.4,0
	C198,9.2,149.9-9.2,103.8,4.9C43.8,23.5,4.1,73.3,0.4,134.8c-7.1,116.7,80.9,179.8,174,246.5c4.6,3.3,9.2,6.6,13.8,9.9
	c2.8,2,5.7,4.1,8.5,6.1c11.9,8.5,23.1,16.5,34.1,25.2c11.2,9,27.2,9,38.4,0h0.1c10.9-8.7,22.2-16.7,34.1-25.2c2.8-2,5.7-4.1,8.5-6.1
	c4.6-3.3,9.2-6.6,13.8-9.9C418.7,314.6,506.7,251.5,499.6,134.8z M145.3,90.4c-6.7,0-13.2,1-18.9,2.8c-22.8,7-36.6,24-37.9,46.6
	c-1.2,20.9,3.1,38.5,13.7,55.5c6,9.8,3,22.7-6.7,28.8c-3.4,2.1-7.2,3.2-11,3.2c-7.1,0-13.9-3.8-17.7-9.9
	c-15.2-24.4-21.7-50.6-20-80.1c2.4-40.4,27.6-71.8,67.3-84.1c9.7-3,20.5-4.6,31.3-4.6c11.5,0,20.9,9.4,20.9,20.9
	C166.2,81,156.8,90.4,145.3,90.4z"/>
</svg>
