<?xml version="1.0" encoding="utf-8"?>
<!-- Generator: Adobe Illustrator 25.0.0, SVG Export Plug-In . SVG Version: 6.00 Build 0)  -->
<svg version="1.1" id="Layer_1" xmlns="http://www.w3.org/2000/svg" xmlns:xlink="http://www.w3.org/1999/xlink" x="0px" y="0px"
	 viewBox="0 0 83.8 63.1" style="enable-background:new 0 0 83.8 63.1;" xml:space="preserve">
<path d="M51.1,2L13.8,18.6C8.1,21.1,3.7,25.7,1.5,31.5s-2,12.2,0.5,17.8c5.2,11.8,19.1,17,30.8,11.8L70,44.6
	c5.7-2.5,10.1-7.1,12.3-12.9c2.2-5.8,2-12.2-0.5-17.8C76.6,2.1,62.9-3.2,51.1,2z M47.3,43.8l-18.6,8.3c-6.8,3-14.7,0-17.7-6.8
	C9.5,42,9.5,38.4,10.7,35c1.3-3.3,3.8-6,7.1-7.4l18.6-8.3L47.3,43.8z M65.1,16.8c-0.5,1.3-1.5,2.5-3,3.2l-8.4,3.7
	c-2.8,1.3-6.1,0-7.4-2.8c-0.6-1.5-0.7-3-0.1-4.3c0.5-1.3,1.5-2.4,3-3.1l8.5-3.8c2.8-1.3,6.1,0,7.4,2.8
	C65.7,13.9,65.7,15.4,65.1,16.8z"/>
</svg>
